<svg viewBox="77 92 24 24" version="1.1" xmlns="http://www.w3.org/2000/svg" xmlns:xlink="http://www.w3.org/1999/xlink" xmlns:penpot="https://penpot.app/xmlns" style="width:100%;height:100%;background:#E8E9EA" fill="none"><penpot:page id="4b8a77a1-3fb4-8143-8002-12c7f916220f"></penpot:page><g id="shape-f2c43538-02cb-80a0-8002-12c804713a82" style="fill:#000000" rx="0" ry="0"><penpot:shape penpot:name="bell-ring" penpot:type="group" penpot:proportion="1" penpot:proportion-lock="false" penpot:center-x="89" penpot:center-y="104"><penpot:svg-import></penpot:svg-import></penpot:shape><defs></defs><g id="shape-f2c43538-02cb-80a0-8002-12c80475dc01"><penpot:shape penpot:name="svg-path" penpot:type="path" penpot:proportion="1" penpot:proportion-lock="false" penpot:center-x="89" penpot:center-y="104.5"><penpot:svg-import penpot:svg-viewbox-x="1" penpot:svg-viewbox-y="2" penpot:svg-viewbox-width="22" penpot:svg-viewbox-height="21" penpot:svg-transform="matrix(1.000000, 0.000000, 0.000000, 1.000000, 0.000000, 0.000000)"></penpot:svg-import><penpot:fills><penpot:fill penpot:fill-color="#ffffff" penpot:fill-opacity="1"></penpot:fill></penpot:fills></penpot:shape><defs></defs><g class="fills" id="fills-f2c43538-02cb-80a0-8002-12c80475dc01"><path rx="0" ry="0" style="fill:#ffffff;fill-opacity:1" d="M98.000,111.000L98.000,112.000L80.000,112.000L80.000,111.000L82.000,109.000L82.000,103.000C82.000,99.900,84.030,97.170,87.000,96.290C87.000,96.190,87.000,96.100,87.000,96.000C87.000,94.895,87.895,94.000,89.000,94.000C90.105,94.000,91.000,94.895,91.000,96.000C91.000,96.100,91.000,96.190,91.000,96.290C93.970,97.170,96.000,99.900,96.000,103.000L96.000,109.000L98.000,111.000ZM91.000,113.000C91.000,114.105,90.105,115.000,89.000,115.000C87.895,115.000,87.000,114.105,87.000,113.000M96.750,95.190L95.330,96.610C97.040,98.300,98.000,100.600,98.000,103.000L100.000,103.000C100.000,100.070,98.840,97.250,96.750,95.190ZM78.000,103.000L80.000,103.000C80.000,100.600,80.960,98.300,82.670,96.610L81.250,95.190C79.160,97.250,78.000,100.070,78.000,103.000ZZ"></path></g></g></g></svg>