<?xml version="1.0" encoding="UTF-8"?>
<svg xmlns="http://www.w3.org/2000/svg" xmlns:xlink="http://www.w3.org/1999/xlink" width="24px" height="24px" viewBox="0 0 24 24" version="1.1">
<g id="surface1">
<path style=" stroke:none;fill-rule:nonzero;fill:rgb(100%,100%,100%);fill-opacity:1;" d="M 21 19 L 21 20 L 3 20 L 3 19 L 5 17 L 5 11 C 5 7.898438 7.03125 5.171875 10 4.289062 C 10 4.191406 10 4.101562 10 4 C 10 2.894531 10.894531 2 12 2 C 13.105469 2 14 2.894531 14 4 C 14 4.101562 14 4.191406 14 4.289062 C 16.96875 5.171875 19 7.898438 19 11 L 19 17 Z M 14 21 C 14 22.105469 13.105469 23 12 23 C 10.894531 23 10 22.105469 10 21 M 19.75 3.191406 L 18.328125 4.609375 C 20.039062 6.300781 21 8.601562 21 11 L 23 11 C 23 8.070312 21.839844 5.25 19.75 3.191406 Z M 1 11 L 3 11 C 3 8.601562 3.960938 6.300781 5.671875 4.609375 L 4.25 3.191406 C 2.160156 5.25 1 8.070312 1 11 Z M 1 11 Z M 1 11 "/>
</g>
</svg>
