<svg viewBox="60 77 24 24" version="1.1" xmlns="http://www.w3.org/2000/svg" xmlns:xlink="http://www.w3.org/1999/xlink" xmlns:penpot="https://penpot.app/xmlns" style="width:100%;height:100%;background:#E8E9EA" fill="none"><penpot:page id="4b8a77a1-3fb4-8143-8002-12c7f916220f"></penpot:page><g id="shape-0a34a5b0-8ead-8014-8002-13597e8e60c3" style="fill:#000000" rx="0" ry="0"><penpot:shape penpot:name="black-mesa" penpot:type="group" penpot:proportion="1" penpot:proportion-lock="false" penpot:center-x="72" penpot:center-y="89"><penpot:svg-import></penpot:svg-import></penpot:shape><defs></defs><g id="shape-0a34a5b0-8ead-8014-8002-13597e927bc3"><penpot:shape penpot:name="svg-path" penpot:type="path" penpot:proportion="1" penpot:proportion-lock="false" penpot:center-x="72" penpot:center-y="89"><penpot:svg-import penpot:svg-viewbox-x="2" penpot:svg-viewbox-y="2" penpot:svg-viewbox-width="20" penpot:svg-viewbox-height="20" penpot:svg-transform="matrix(1.000000, 0.000000, 0.000000, 1.000000, 0.000000, 0.000000)"></penpot:svg-import><penpot:fills><penpot:fill penpot:fill-color="#ffffff" penpot:fill-opacity="1"></penpot:fill></penpot:fills></penpot:shape><defs></defs><g class="fills" id="fills-0a34a5b0-8ead-8014-8002-13597e927bc3"><path rx="0" ry="0" style="fill:#ffffff;fill-opacity:1" d="M72.000,79.000C77.523,79.000,82.000,83.477,82.000,89.000C82.000,94.523,77.523,99.000,72.000,99.000C66.477,99.000,62.000,94.523,62.000,89.000C62.000,83.477,66.477,79.000,72.000,79.000ZM72.000,81.000C67.582,81.000,64.000,84.582,64.000,89.000C64.000,91.390,65.050,93.530,66.710,95.000L69.000,95.000L69.000,89.000L77.000,89.000L79.150,92.590C79.690,91.500,80.000,90.290,80.000,89.000C80.000,84.582,76.418,81.000,72.000,81.000ZZ"></path></g></g></g></svg>