<?xml version="1.0" encoding="UTF-8"?>
<svg xmlns="http://www.w3.org/2000/svg" xmlns:xlink="http://www.w3.org/1999/xlink" width="70px" height="70px" viewBox="0 0 70 70" version="1.1">
<g id="surface1">
<path style=" stroke:none;fill-rule:nonzero;fill:rgb(100%,100%,100%);fill-opacity:1;" d="M 35 5.832031 C 51.109375 5.832031 64.167969 18.890625 64.167969 35 C 64.167969 51.109375 51.109375 64.167969 35 64.167969 C 18.890625 64.167969 5.832031 51.109375 5.832031 35 C 5.832031 18.890625 18.890625 5.832031 35 5.832031 Z M 35 11.667969 C 22.113281 11.667969 11.667969 22.113281 11.667969 35 C 11.667969 41.972656 14.730469 48.210938 19.574219 52.5 L 26.25 52.5 L 26.25 35 L 49.582031 35 L 55.855469 45.46875 C 57.425781 42.292969 58.332031 38.757812 58.332031 35 C 58.332031 22.113281 47.886719 11.667969 35 11.667969 Z M 35 11.667969 Z M 35 11.667969 "/>
</g>
</svg>
