<svg viewBox="65 62 24 24" version="1.1" xmlns="http://www.w3.org/2000/svg" xmlns:xlink="http://www.w3.org/1999/xlink" xmlns:penpot="https://penpot.app/xmlns" style="width:100%;height:100%;background:#E8E9EA" fill="none"><penpot:page id="4b8a77a1-3fb4-8143-8002-12c7f916220f"></penpot:page><g id="shape-0a34a5b0-8ead-8014-8002-135a9217e5ef" style="fill:#000000" rx="0" ry="0"><penpot:shape penpot:name="cog" penpot:type="group" penpot:proportion="1" penpot:proportion-lock="false" penpot:center-x="77" penpot:center-y="74"><penpot:svg-import></penpot:svg-import></penpot:shape><defs></defs><g id="shape-0a34a5b0-8ead-8014-8002-135a921e1bb6"><penpot:shape penpot:name="svg-path" penpot:type="path" penpot:proportion="1" penpot:proportion-lock="false" penpot:center-x="76.99779125504365" penpot:center-y="74"><penpot:svg-import penpot:svg-viewbox-x="2.270668396068453" penpot:svg-viewbox-y="2" penpot:svg-viewbox-width="19.454245717950386" penpot:svg-viewbox-height="20" penpot:svg-transform="matrix(1.000000, 0.000000, 0.000000, 1.000000, 0.000000, 0.000000)"></penpot:svg-import><penpot:fills><penpot:fill penpot:fill-color="#ffffff" penpot:fill-opacity="1"></penpot:fill></penpot:fills></penpot:shape><defs></defs><g class="fills" id="fills-0a34a5b0-8ead-8014-8002-135a921e1bb6"><path rx="0" ry="0" style="fill:#ffffff;fill-opacity:1" d="M77.000,77.500C75.067,77.500,73.500,75.933,73.500,74.000C73.500,72.067,75.067,70.500,77.000,70.500C78.933,70.500,80.500,72.067,80.500,74.000C80.500,75.933,78.933,77.500,77.000,77.500ZM84.430,74.970C84.470,74.650,84.500,74.330,84.500,74.000C84.500,73.670,84.470,73.340,84.430,73.000L86.540,71.370C86.730,71.220,86.780,70.950,86.660,70.730L84.660,67.270C84.540,67.050,84.270,66.960,84.050,67.050L81.560,68.050C81.040,67.660,80.500,67.320,79.870,67.070L79.500,64.420C79.460,64.180,79.250,64.000,79.000,64.000L75.000,64.000C74.750,64.000,74.540,64.180,74.500,64.420L74.130,67.070C73.500,67.320,72.960,67.660,72.440,68.050L69.950,67.050C69.730,66.960,69.460,67.050,69.340,67.270L67.340,70.730C67.210,70.950,67.270,71.220,67.460,71.370L69.570,73.000C69.530,73.340,69.500,73.670,69.500,74.000C69.500,74.330,69.530,74.650,69.570,74.970L67.460,76.630C67.270,76.780,67.210,77.050,67.340,77.270L69.340,80.730C69.460,80.950,69.730,81.030,69.950,80.950L72.440,79.940C72.960,80.340,73.500,80.680,74.130,80.930L74.500,83.580C74.540,83.820,74.750,84.000,75.000,84.000L79.000,84.000C79.250,84.000,79.460,83.820,79.500,83.580L79.870,80.930C80.500,80.670,81.040,80.340,81.560,79.940L84.050,80.950C84.270,81.030,84.540,80.950,84.660,80.730L86.660,77.270C86.780,77.050,86.730,76.780,86.540,76.630L84.430,74.970ZZ"></path></g></g></g></svg>