<?xml version="1.0" encoding="UTF-8"?>
<svg xmlns="http://www.w3.org/2000/svg" xmlns:xlink="http://www.w3.org/1999/xlink" width="24px" height="24px" viewBox="0 0 24 24" version="1.1">
<g id="surface1">
<path style=" stroke:none;fill-rule:nonzero;fill:rgb(100%,100%,100%);fill-opacity:1;" d="M 12 15.5 C 10.066406 15.5 8.5 13.933594 8.5 12 C 8.5 10.066406 10.066406 8.5 12 8.5 C 13.933594 8.5 15.5 10.066406 15.5 12 C 15.5 13.933594 13.933594 15.5 12 15.5 Z M 19.429688 12.96875 C 19.46875 12.648438 19.5 12.328125 19.5 12 C 19.5 11.671875 19.46875 11.339844 19.429688 11 L 21.539062 9.371094 C 21.730469 9.21875 21.78125 8.949219 21.660156 8.730469 L 19.660156 5.269531 C 19.539062 5.050781 19.269531 4.960938 19.050781 5.050781 L 16.558594 6.050781 C 16.039062 5.660156 15.5 5.320312 14.871094 5.070312 L 14.5 2.421875 C 14.460938 2.179688 14.25 2 14 2 L 10 2 C 9.75 2 9.539062 2.179688 9.5 2.421875 L 9.128906 5.070312 C 8.5 5.320312 7.960938 5.660156 7.441406 6.050781 L 4.949219 5.050781 C 4.730469 4.960938 4.460938 5.050781 4.339844 5.269531 L 2.339844 8.730469 C 2.210938 8.949219 2.269531 9.21875 2.460938 9.371094 L 4.570312 11 C 4.53125 11.339844 4.5 11.671875 4.5 12 C 4.5 12.328125 4.53125 12.648438 4.570312 12.96875 L 2.460938 14.628906 C 2.269531 14.78125 2.210938 15.050781 2.339844 15.269531 L 4.339844 18.730469 C 4.460938 18.949219 4.730469 19.03125 4.949219 18.949219 L 7.441406 17.941406 C 7.960938 18.339844 8.5 18.679688 9.128906 18.929688 L 9.5 21.578125 C 9.539062 21.820312 9.75 22 10 22 L 14 22 C 14.25 22 14.460938 21.820312 14.5 21.578125 L 14.871094 18.929688 C 15.5 18.671875 16.039062 18.339844 16.558594 17.941406 L 19.050781 18.949219 C 19.269531 19.03125 19.539062 18.949219 19.660156 18.730469 L 21.660156 15.269531 C 21.78125 15.050781 21.730469 14.78125 21.539062 14.628906 Z M 19.429688 12.96875 Z M 19.429688 12.96875 "/>
</g>
</svg>
