<svg viewBox="66 60 24 24" version="1.1" xmlns="http://www.w3.org/2000/svg" xmlns:xlink="http://www.w3.org/1999/xlink" xmlns:penpot="https://penpot.app/xmlns" style="width:100%;height:100%;background:#E8E9EA" fill="none"><penpot:page id="4b8a77a1-3fb4-8143-8002-12c7f916220f"></penpot:page><g id="shape-0a34a5b0-8ead-8014-8002-135ac5866970" style="fill:#000000" rx="0" ry="0"><penpot:shape penpot:name="file-multiple" penpot:type="group" penpot:proportion="1" penpot:proportion-lock="false" penpot:center-x="78" penpot:center-y="72"><penpot:svg-import></penpot:svg-import></penpot:shape><defs></defs><g id="shape-0a34a5b0-8ead-8014-8002-135ac58a4475"><penpot:shape penpot:name="svg-path" penpot:type="path" penpot:proportion="1" penpot:proportion-lock="false" penpot:center-x="78" penpot:center-y="72"><penpot:svg-import penpot:svg-viewbox-x="2" penpot:svg-viewbox-y="0" penpot:svg-viewbox-width="20" penpot:svg-viewbox-height="24" penpot:svg-transform="matrix(1.000000, 0.000000, 0.000000, 1.000000, 0.000000, 0.000000)"></penpot:svg-import><penpot:fills><penpot:fill penpot:fill-color="#ffffff" penpot:fill-opacity="1"></penpot:fill></penpot:fills></penpot:shape><defs></defs><g class="fills" id="fills-0a34a5b0-8ead-8014-8002-135ac58a4475"><path rx="0" ry="0" style="fill:#ffffff;fill-opacity:1" d="M81.000,67.000L86.500,67.000L81.000,61.500L81.000,67.000ZM74.000,60.000L82.000,60.000L88.000,66.000L88.000,78.000C88.000,79.105,87.105,80.000,86.000,80.000L74.000,80.000C72.890,80.000,72.000,79.100,72.000,78.000L72.000,62.000C72.000,60.895,72.895,60.000,74.000,60.000ZM70.000,64.000L70.000,82.000L86.000,82.000L86.000,84.000L70.000,84.000C68.895,84.000,68.000,83.105,68.000,82.000L68.000,64.000L70.000,64.000ZZ"></path></g></g></g></svg>