<?xml version="1.0" encoding="UTF-8"?>
<svg xmlns="http://www.w3.org/2000/svg" xmlns:xlink="http://www.w3.org/1999/xlink" width="24px" height="24px" viewBox="0 0 24 24" version="1.1">
<g id="surface1">
<path style=" stroke:none;fill-rule:nonzero;fill:rgb(100%,100%,100%);fill-opacity:1;" d="M 15 7 L 20.5 7 L 15 1.5 Z M 8 0 L 16 0 L 22 6 L 22 18 C 22 19.105469 21.105469 20 20 20 L 8 20 C 6.890625 20 6 19.101562 6 18 L 6 2 C 6 0.894531 6.894531 0 8 0 Z M 4 4 L 4 22 L 20 22 L 20 24 L 4 24 C 2.894531 24 2 23.105469 2 22 L 2 4 Z M 4 4 Z M 4 4 "/>
</g>
</svg>
