<?xml version="1.0" encoding="UTF-8"?>
<svg xmlns="http://www.w3.org/2000/svg" xmlns:xlink="http://www.w3.org/1999/xlink" width="24px" height="24px" viewBox="0 0 24 24" version="1.1">
<g id="surface1">
<path style=" stroke:none;fill-rule:nonzero;fill:rgb(100%,100%,100%);fill-opacity:1;" d="M 12 2 C 6.476562 2 2 6.476562 2 12 C 2 16.421875 4.871094 20.171875 8.839844 21.5 C 9.339844 21.578125 9.5 21.269531 9.5 21 C 9.5 20.769531 9.5 20.140625 9.5 19.308594 C 6.730469 19.910156 6.140625 17.96875 6.140625 17.96875 C 5.679688 16.808594 5.03125 16.5 5.03125 16.5 C 4.121094 15.878906 5.101562 15.898438 5.101562 15.898438 C 6.101562 15.96875 6.628906 16.929688 6.628906 16.929688 C 7.5 18.449219 8.96875 18 9.539062 17.761719 C 9.628906 17.109375 9.890625 16.671875 10.171875 16.421875 C 7.949219 16.171875 5.621094 15.308594 5.621094 11.5 C 5.621094 10.390625 6 9.5 6.648438 8.789062 C 6.550781 8.539062 6.199219 7.5 6.75 6.148438 C 6.75 6.148438 7.589844 5.878906 9.5 7.171875 C 10.289062 6.949219 11.148438 6.839844 12 6.839844 C 12.851562 6.839844 13.710938 6.949219 14.5 7.171875 C 16.410156 5.878906 17.25 6.148438 17.25 6.148438 C 17.800781 7.5 17.449219 8.539062 17.351562 8.789062 C 18 9.5 18.378906 10.390625 18.378906 11.5 C 18.378906 15.320312 16.039062 16.160156 13.808594 16.410156 C 14.171875 16.71875 14.5 17.328125 14.5 18.261719 C 14.5 19.601562 14.5 20.679688 14.5 21 C 14.5 21.269531 14.660156 21.589844 15.171875 21.5 C 19.140625 20.160156 22 16.421875 22 12 C 22 6.476562 17.523438 2 12 2 Z M 12 2 Z M 12 2 "/>
</g>
</svg>
