<svg viewBox="58 43 24 24" version="1.1" xmlns="http://www.w3.org/2000/svg" xmlns:xlink="http://www.w3.org/1999/xlink" xmlns:penpot="https://penpot.app/xmlns" style="width:100%;height:100%;background:#E8E9EA" fill="none"><penpot:page id="4b8a77a1-3fb4-8143-8002-12c7f916220f"></penpot:page><g id="shape-0a34a5b0-8ead-8014-8002-135ce8239de4" style="fill:#000000" rx="0" ry="0"><penpot:shape penpot:name="github" penpot:type="group" penpot:proportion="1" penpot:proportion-lock="false" penpot:center-x="70" penpot:center-y="55"><penpot:svg-import></penpot:svg-import></penpot:shape><defs></defs><g id="shape-0a34a5b0-8ead-8014-8002-135ce82a2b33"><penpot:shape penpot:name="svg-path" penpot:type="path" penpot:proportion="1" penpot:proportion-lock="false" penpot:center-x="70" penpot:center-y="54.75774477015706"><penpot:svg-import penpot:svg-viewbox-x="2" penpot:svg-viewbox-y="2" penpot:svg-viewbox-width="20" penpot:svg-viewbox-height="19.515489540314114" penpot:svg-transform="matrix(1.000000, 0.000000, 0.000000, 1.000000, 0.000000, 0.000000)"></penpot:svg-import><penpot:fills><penpot:fill penpot:fill-color="#ffffff" penpot:fill-opacity="1"></penpot:fill></penpot:fills></penpot:shape><defs></defs><g class="fills" id="fills-0a34a5b0-8ead-8014-8002-135ce82a2b33"><path rx="0" ry="0" style="fill:#ffffff;fill-opacity:1" d="M70.000,45.000C64.477,45.000,60.000,49.477,60.000,55.000C60.000,59.420,62.870,63.170,66.840,64.500C67.340,64.580,67.500,64.270,67.500,64.000C67.500,63.770,67.500,63.140,67.500,62.310C64.730,62.910,64.140,60.970,64.140,60.970C63.680,59.810,63.030,59.500,63.030,59.500C62.120,58.880,63.100,58.900,63.100,58.900C64.100,58.970,64.630,59.930,64.630,59.930C65.500,61.450,66.970,61.000,67.540,60.760C67.630,60.110,67.890,59.670,68.170,59.420C65.950,59.170,63.620,58.310,63.620,54.500C63.620,53.390,64.000,52.500,64.650,51.790C64.550,51.540,64.200,50.500,64.750,49.150C64.750,49.150,65.590,48.880,67.500,50.170C68.290,49.950,69.150,49.840,70.000,49.840C70.850,49.840,71.710,49.950,72.500,50.170C74.410,48.880,75.250,49.150,75.250,49.150C75.800,50.500,75.450,51.540,75.350,51.790C76.000,52.500,76.380,53.390,76.380,54.500C76.380,58.320,74.040,59.160,71.810,59.410C72.170,59.720,72.500,60.330,72.500,61.260C72.500,62.600,72.500,63.680,72.500,64.000C72.500,64.270,72.660,64.590,73.170,64.500C77.140,63.160,80.000,59.420,80.000,55.000C80.000,49.477,75.523,45.000,70.000,45.000ZZ"></path></g></g></g></svg>