<?xml version="1.0" encoding="UTF-8"?>
<svg xmlns="http://www.w3.org/2000/svg" xmlns:xlink="http://www.w3.org/1999/xlink" width="24px" height="24px" viewBox="0 0 24 24" version="1.1">
<g id="surface1">
<path style=" stroke:none;fill-rule:nonzero;fill:rgb(100%,100%,100%);fill-opacity:1;" d="M 15.070312 11.25 L 14.171875 12.171875 C 13.449219 12.890625 13 13.5 13 15 L 11 15 L 11 14.5 C 11 13.390625 11.449219 12.390625 12.171875 11.671875 L 13.410156 10.410156 C 13.78125 10.050781 14 9.550781 14 9 C 14 7.890625 13.101562 7 12 7 C 10.894531 7 10 7.894531 10 9 L 8 9 C 8 6.789062 9.789062 5 12 5 C 14.210938 5 16 6.789062 16 9 C 16 9.878906 15.640625 10.671875 15.070312 11.25 Z M 13 19 L 11 19 L 11 17 L 13 17 M 12 2 C 6.476562 2 2 6.476562 2 12 C 2 17.523438 6.476562 22 12 22 C 17.523438 22 22 17.523438 22 12 C 22 6.46875 17.5 2 12 2 Z M 12 2 Z M 12 2 "/>
</g>
</svg>
