<svg viewBox="66 50 24 24" version="1.1" xmlns="http://www.w3.org/2000/svg" xmlns:xlink="http://www.w3.org/1999/xlink" xmlns:penpot="https://penpot.app/xmlns" style="width:100%;height:100%;background:#E8E9EA" fill="none"><penpot:page id="4b8a77a1-3fb4-8143-8002-12c7f916220f"></penpot:page><g id="shape-0a34a5b0-8ead-8014-8002-135b2bc56be3" style="fill:#000000" rx="0" ry="0"><penpot:shape penpot:name="magnify" penpot:type="group" penpot:proportion="1" penpot:proportion-lock="false" penpot:center-x="78" penpot:center-y="62"><penpot:svg-import></penpot:svg-import></penpot:shape><defs></defs><g id="shape-0a34a5b0-8ead-8014-8002-135b2bcbe4ca"><penpot:shape penpot:name="svg-path" penpot:type="path" penpot:proportion="1" penpot:proportion-lock="false" penpot:center-x="77.75" penpot:center-y="61.75"><penpot:svg-import penpot:svg-viewbox-x="3" penpot:svg-viewbox-y="3" penpot:svg-viewbox-width="17.5" penpot:svg-viewbox-height="17.5" penpot:svg-transform="matrix(1.000000, 0.000000, 0.000000, 1.000000, 0.000000, 0.000000)"></penpot:svg-import><penpot:fills><penpot:fill penpot:fill-color="#ffffff" penpot:fill-opacity="1"></penpot:fill></penpot:fills></penpot:shape><defs></defs><g class="fills" id="fills-0a34a5b0-8ead-8014-8002-135b2bcbe4ca"><path rx="0" ry="0" style="fill:#ffffff;fill-opacity:1" d="M75.500,53.000C79.090,53.000,82.000,55.910,82.000,59.500C82.000,61.110,81.410,62.590,80.440,63.730L80.710,64.000L81.500,64.000L86.500,69.000L85.000,70.500L80.000,65.500L80.000,64.710L79.730,64.440C78.590,65.410,77.110,66.000,75.500,66.000C71.910,66.000,69.000,63.090,69.000,59.500C69.000,55.910,71.910,53.000,75.500,53.000ZM75.500,55.000C73.000,55.000,71.000,57.000,71.000,59.500C71.000,62.000,73.000,64.000,75.500,64.000C78.000,64.000,80.000,62.000,80.000,59.500C80.000,57.000,78.000,55.000,75.500,55.000ZZ"></path></g></g></g></svg>