<?xml version="1.0" encoding="UTF-8"?>
<svg xmlns="http://www.w3.org/2000/svg" xmlns:xlink="http://www.w3.org/1999/xlink" width="24px" height="24px" viewBox="0 0 24 24" version="1.1">
<g id="surface1">
<path style=" stroke:none;fill-rule:nonzero;fill:rgb(100%,100%,100%);fill-opacity:1;" d="M 9.5 3 C 13.089844 3 16 5.910156 16 9.5 C 16 11.109375 15.410156 12.589844 14.441406 13.730469 L 14.710938 14 L 15.5 14 L 20.5 19 L 19 20.5 L 14 15.5 L 14 14.710938 L 13.730469 14.441406 C 12.589844 15.410156 11.109375 16 9.5 16 C 5.910156 16 3 13.089844 3 9.5 C 3 5.910156 5.910156 3 9.5 3 Z M 9.5 5 C 7 5 5 7 5 9.5 C 5 12 7 14 9.5 14 C 12 14 14 12 14 9.5 C 14 7 12 5 9.5 5 Z M 9.5 5 Z M 9.5 5 "/>
</g>
</svg>
