<?xml version="1.0" encoding="UTF-8"?>
<svg xmlns="http://www.w3.org/2000/svg" xmlns:xlink="http://www.w3.org/1999/xlink" width="24px" height="24px" viewBox="0 0 24 24" version="1.1">
<g id="surface1">
<path style=" stroke:none;fill-rule:nonzero;fill:rgb(100%,100%,100%);fill-opacity:1;" d="M 7.5 2 C 5.710938 3.148438 4.5 5.179688 4.5 7.5 C 4.5 9.820312 5.710938 11.851562 7.53125 13 C 4.460938 13 2 10.539062 2 7.5 C 2 4.460938 4.460938 2 7.5 2 Z M 19.070312 3.5 L 20.5 4.929688 L 4.929688 20.5 L 3.5 19.070312 Z M 12.890625 5.929688 L 11.410156 5 L 9.96875 6 L 10.390625 4.300781 L 9 3.238281 L 10.75 3.121094 L 11.328125 1.46875 L 12 3.101562 L 13.730469 3.128906 L 12.378906 4.261719 Z M 9.589844 9.539062 L 8.429688 8.808594 L 7.308594 9.589844 L 7.648438 8.269531 L 6.558594 7.441406 L 7.921875 7.351562 L 8.371094 6.058594 L 8.878906 7.328125 L 10.238281 7.359375 L 9.191406 8.230469 Z M 19 13.5 C 19 16.539062 16.539062 19 13.5 19 C 12.28125 19 11.148438 18.601562 10.238281 17.929688 L 17.929688 10.238281 C 18.601562 11.148438 19 12.28125 19 13.5 Z M 14.601562 20.078125 L 17.371094 18.929688 L 17.128906 22.28125 Z M 18.929688 17.378906 L 20.078125 14.609375 L 22.28125 17.148438 Z M 20.078125 12.421875 L 18.941406 9.640625 L 22.28125 9.878906 Z M 9.628906 18.929688 L 12.398438 20.078125 L 9.871094 22.269531 Z M 9.628906 18.929688 Z M 9.628906 18.929688 "/>
</g>
</svg>
